<mxfile host="Electron" agent="Mozilla/5.0 (Windows NT 10.0; Win64; x64) AppleWebKit/537.36 (KHTML, like Gecko) draw.io/27.0.9 Chrome/134.0.6998.205 Electron/35.4.0 Safari/537.36" version="27.0.9">
  <diagram name="Page-1" id="2h5mjfQVh2PBSUGpV-Li">
    <mxGraphModel dx="2890" dy="2469" grid="1" gridSize="10" guides="1" tooltips="1" connect="1" arrows="1" fold="1" page="1" pageScale="1" pageWidth="850" pageHeight="1100" math="0" shadow="0">
      <root>
        <mxCell id="0" />
        <mxCell id="1" parent="0" />
        <mxCell id="htzor1O-yuh1PvPFaX9e-69" value="" style="rounded=0;whiteSpace=wrap;html=1;fillColor=none;dashed=1;strokeColor=#CC0000;strokeWidth=9;" parent="1" vertex="1">
          <mxGeometry x="-70" y="90" width="590" height="710" as="geometry" />
        </mxCell>
        <mxCell id="htzor1O-yuh1PvPFaX9e-1" value="&lt;font style=&quot;color: rgb(255, 255, 255);&quot;&gt;crm_prd_info&lt;/font&gt;" style="swimlane;fontStyle=0;childLayout=stackLayout;horizontal=1;startSize=30;horizontalStack=0;resizeParent=1;resizeParentMax=0;resizeLast=0;collapsible=1;marginBottom=0;whiteSpace=wrap;html=1;fillColor=#1ba1e2;fontColor=#ffffff;strokeColor=#006EAF;fontSize=17;" parent="1" vertex="1">
          <mxGeometry x="290" y="190" width="144" height="250" as="geometry" />
        </mxCell>
        <mxCell id="htzor1O-yuh1PvPFaX9e-2" value="prd_id" style="text;strokeColor=none;fillColor=none;align=left;verticalAlign=middle;spacingLeft=4;spacingRight=4;overflow=hidden;points=[[0,0.5],[1,0.5]];portConstraint=eastwest;rotatable=0;whiteSpace=wrap;html=1;fontSize=17;" parent="htzor1O-yuh1PvPFaX9e-1" vertex="1">
          <mxGeometry y="30" width="144" height="30" as="geometry" />
        </mxCell>
        <mxCell id="htzor1O-yuh1PvPFaX9e-3" value="prd_key" style="text;strokeColor=none;fillColor=none;align=left;verticalAlign=middle;spacingLeft=4;spacingRight=4;overflow=hidden;points=[[0,0.5],[1,0.5]];portConstraint=eastwest;rotatable=0;whiteSpace=wrap;html=1;fontSize=17;" parent="htzor1O-yuh1PvPFaX9e-1" vertex="1">
          <mxGeometry y="60" width="144" height="30" as="geometry" />
        </mxCell>
        <mxCell id="htzor1O-yuh1PvPFaX9e-4" value="prd_nm" style="text;strokeColor=none;fillColor=none;align=left;verticalAlign=middle;spacingLeft=4;spacingRight=4;overflow=hidden;points=[[0,0.5],[1,0.5]];portConstraint=eastwest;rotatable=0;whiteSpace=wrap;html=1;fontSize=17;" parent="htzor1O-yuh1PvPFaX9e-1" vertex="1">
          <mxGeometry y="90" width="144" height="32" as="geometry" />
        </mxCell>
        <mxCell id="htzor1O-yuh1PvPFaX9e-7" value="prd_cost" style="text;strokeColor=none;fillColor=none;align=left;verticalAlign=middle;spacingLeft=4;spacingRight=4;overflow=hidden;points=[[0,0.5],[1,0.5]];portConstraint=eastwest;rotatable=0;whiteSpace=wrap;html=1;fontSize=17;" parent="htzor1O-yuh1PvPFaX9e-1" vertex="1">
          <mxGeometry y="122" width="144" height="32" as="geometry" />
        </mxCell>
        <mxCell id="htzor1O-yuh1PvPFaX9e-6" value="prd_line" style="text;strokeColor=none;fillColor=none;align=left;verticalAlign=middle;spacingLeft=4;spacingRight=4;overflow=hidden;points=[[0,0.5],[1,0.5]];portConstraint=eastwest;rotatable=0;whiteSpace=wrap;html=1;fontSize=17;" parent="htzor1O-yuh1PvPFaX9e-1" vertex="1">
          <mxGeometry y="154" width="144" height="32" as="geometry" />
        </mxCell>
        <mxCell id="htzor1O-yuh1PvPFaX9e-5" value="prd_start_dt" style="text;strokeColor=none;fillColor=none;align=left;verticalAlign=middle;spacingLeft=4;spacingRight=4;overflow=hidden;points=[[0,0.5],[1,0.5]];portConstraint=eastwest;rotatable=0;whiteSpace=wrap;html=1;fontSize=17;" parent="htzor1O-yuh1PvPFaX9e-1" vertex="1">
          <mxGeometry y="186" width="144" height="32" as="geometry" />
        </mxCell>
        <mxCell id="htzor1O-yuh1PvPFaX9e-9" value="prd_end_dt" style="text;strokeColor=none;fillColor=none;align=left;verticalAlign=middle;spacingLeft=4;spacingRight=4;overflow=hidden;points=[[0,0.5],[1,0.5]];portConstraint=eastwest;rotatable=0;whiteSpace=wrap;html=1;fontSize=17;" parent="htzor1O-yuh1PvPFaX9e-1" vertex="1">
          <mxGeometry y="218" width="144" height="32" as="geometry" />
        </mxCell>
        <mxCell id="htzor1O-yuh1PvPFaX9e-14" value="&lt;font style=&quot;color: rgb(255, 255, 255);&quot;&gt;crm_cust_inf&lt;/font&gt;" style="swimlane;fontStyle=0;childLayout=stackLayout;horizontal=1;startSize=30;horizontalStack=0;resizeParent=1;resizeParentMax=0;resizeLast=0;collapsible=1;marginBottom=0;whiteSpace=wrap;html=1;fillColor=#1ba1e2;fontColor=#ffffff;strokeColor=#006EAF;fontSize=17;" parent="1" vertex="1">
          <mxGeometry x="290" y="490" width="144" height="250" as="geometry" />
        </mxCell>
        <mxCell id="htzor1O-yuh1PvPFaX9e-15" value="cst_id" style="text;strokeColor=none;fillColor=none;align=left;verticalAlign=middle;spacingLeft=4;spacingRight=4;overflow=hidden;points=[[0,0.5],[1,0.5]];portConstraint=eastwest;rotatable=0;whiteSpace=wrap;html=1;fontSize=17;" parent="htzor1O-yuh1PvPFaX9e-14" vertex="1">
          <mxGeometry y="30" width="144" height="30" as="geometry" />
        </mxCell>
        <mxCell id="htzor1O-yuh1PvPFaX9e-16" value="cst_key" style="text;strokeColor=none;fillColor=none;align=left;verticalAlign=middle;spacingLeft=4;spacingRight=4;overflow=hidden;points=[[0,0.5],[1,0.5]];portConstraint=eastwest;rotatable=0;whiteSpace=wrap;html=1;fontSize=17;" parent="htzor1O-yuh1PvPFaX9e-14" vertex="1">
          <mxGeometry y="60" width="144" height="30" as="geometry" />
        </mxCell>
        <mxCell id="htzor1O-yuh1PvPFaX9e-17" value="cst_firstname" style="text;strokeColor=none;fillColor=none;align=left;verticalAlign=middle;spacingLeft=4;spacingRight=4;overflow=hidden;points=[[0,0.5],[1,0.5]];portConstraint=eastwest;rotatable=0;whiteSpace=wrap;html=1;fontSize=17;" parent="htzor1O-yuh1PvPFaX9e-14" vertex="1">
          <mxGeometry y="90" width="144" height="32" as="geometry" />
        </mxCell>
        <mxCell id="htzor1O-yuh1PvPFaX9e-18" value="cst_lastname" style="text;strokeColor=none;fillColor=none;align=left;verticalAlign=middle;spacingLeft=4;spacingRight=4;overflow=hidden;points=[[0,0.5],[1,0.5]];portConstraint=eastwest;rotatable=0;whiteSpace=wrap;html=1;fontSize=17;" parent="htzor1O-yuh1PvPFaX9e-14" vertex="1">
          <mxGeometry y="122" width="144" height="32" as="geometry" />
        </mxCell>
        <mxCell id="htzor1O-yuh1PvPFaX9e-19" value="cst_material_status" style="text;strokeColor=none;fillColor=none;align=left;verticalAlign=middle;spacingLeft=4;spacingRight=4;overflow=hidden;points=[[0,0.5],[1,0.5]];portConstraint=eastwest;rotatable=0;whiteSpace=wrap;html=1;fontSize=17;" parent="htzor1O-yuh1PvPFaX9e-14" vertex="1">
          <mxGeometry y="154" width="144" height="32" as="geometry" />
        </mxCell>
        <mxCell id="htzor1O-yuh1PvPFaX9e-20" value="cst_gndr" style="text;strokeColor=none;fillColor=none;align=left;verticalAlign=middle;spacingLeft=4;spacingRight=4;overflow=hidden;points=[[0,0.5],[1,0.5]];portConstraint=eastwest;rotatable=0;whiteSpace=wrap;html=1;fontSize=17;" parent="htzor1O-yuh1PvPFaX9e-14" vertex="1">
          <mxGeometry y="186" width="144" height="32" as="geometry" />
        </mxCell>
        <mxCell id="htzor1O-yuh1PvPFaX9e-21" value="cst_create_date" style="text;strokeColor=none;fillColor=none;align=left;verticalAlign=middle;spacingLeft=4;spacingRight=4;overflow=hidden;points=[[0,0.5],[1,0.5]];portConstraint=eastwest;rotatable=0;whiteSpace=wrap;html=1;fontSize=17;" parent="htzor1O-yuh1PvPFaX9e-14" vertex="1">
          <mxGeometry y="218" width="144" height="32" as="geometry" />
        </mxCell>
        <mxCell id="htzor1O-yuh1PvPFaX9e-22" value="&lt;font style=&quot;color: rgb(255, 255, 255);&quot;&gt;crm_cust_inf&lt;/font&gt;" style="swimlane;fontStyle=0;childLayout=stackLayout;horizontal=1;startSize=30;horizontalStack=0;resizeParent=1;resizeParentMax=0;resizeLast=0;collapsible=1;marginBottom=0;whiteSpace=wrap;html=1;fillColor=#1ba1e2;fontColor=#ffffff;strokeColor=#006EAF;fontSize=17;" parent="1" vertex="1">
          <mxGeometry x="30" y="340" width="144" height="282" as="geometry" />
        </mxCell>
        <mxCell id="htzor1O-yuh1PvPFaX9e-23" value="sls_ord_num" style="text;strokeColor=none;fillColor=none;align=left;verticalAlign=middle;spacingLeft=4;spacingRight=4;overflow=hidden;points=[[0,0.5],[1,0.5]];portConstraint=eastwest;rotatable=0;whiteSpace=wrap;html=1;fontSize=17;" parent="htzor1O-yuh1PvPFaX9e-22" vertex="1">
          <mxGeometry y="30" width="144" height="30" as="geometry" />
        </mxCell>
        <mxCell id="htzor1O-yuh1PvPFaX9e-24" value="sls_prd_key" style="text;strokeColor=none;fillColor=none;align=left;verticalAlign=middle;spacingLeft=4;spacingRight=4;overflow=hidden;points=[[0,0.5],[1,0.5]];portConstraint=eastwest;rotatable=0;whiteSpace=wrap;html=1;fontSize=17;" parent="htzor1O-yuh1PvPFaX9e-22" vertex="1">
          <mxGeometry y="60" width="144" height="30" as="geometry" />
        </mxCell>
        <mxCell id="htzor1O-yuh1PvPFaX9e-25" value="sls_cust_id" style="text;strokeColor=none;fillColor=none;align=left;verticalAlign=middle;spacingLeft=4;spacingRight=4;overflow=hidden;points=[[0,0.5],[1,0.5]];portConstraint=eastwest;rotatable=0;whiteSpace=wrap;html=1;fontSize=17;" parent="htzor1O-yuh1PvPFaX9e-22" vertex="1">
          <mxGeometry y="90" width="144" height="32" as="geometry" />
        </mxCell>
        <mxCell id="htzor1O-yuh1PvPFaX9e-26" value="sls_order_dt" style="text;strokeColor=none;fillColor=none;align=left;verticalAlign=middle;spacingLeft=4;spacingRight=4;overflow=hidden;points=[[0,0.5],[1,0.5]];portConstraint=eastwest;rotatable=0;whiteSpace=wrap;html=1;fontSize=17;" parent="htzor1O-yuh1PvPFaX9e-22" vertex="1">
          <mxGeometry y="122" width="144" height="32" as="geometry" />
        </mxCell>
        <mxCell id="htzor1O-yuh1PvPFaX9e-35" value="sls_ship_dt" style="text;strokeColor=none;fillColor=none;align=left;verticalAlign=middle;spacingLeft=4;spacingRight=4;overflow=hidden;points=[[0,0.5],[1,0.5]];portConstraint=eastwest;rotatable=0;whiteSpace=wrap;html=1;fontSize=17;" parent="htzor1O-yuh1PvPFaX9e-22" vertex="1">
          <mxGeometry y="154" width="144" height="32" as="geometry" />
        </mxCell>
        <mxCell id="htzor1O-yuh1PvPFaX9e-27" value="sls_due_dt" style="text;strokeColor=none;fillColor=none;align=left;verticalAlign=middle;spacingLeft=4;spacingRight=4;overflow=hidden;points=[[0,0.5],[1,0.5]];portConstraint=eastwest;rotatable=0;whiteSpace=wrap;html=1;fontSize=17;" parent="htzor1O-yuh1PvPFaX9e-22" vertex="1">
          <mxGeometry y="186" width="144" height="32" as="geometry" />
        </mxCell>
        <mxCell id="htzor1O-yuh1PvPFaX9e-28" value="sls_sales" style="text;strokeColor=none;fillColor=none;align=left;verticalAlign=middle;spacingLeft=4;spacingRight=4;overflow=hidden;points=[[0,0.5],[1,0.5]];portConstraint=eastwest;rotatable=0;whiteSpace=wrap;html=1;fontSize=17;" parent="htzor1O-yuh1PvPFaX9e-22" vertex="1">
          <mxGeometry y="218" width="144" height="32" as="geometry" />
        </mxCell>
        <mxCell id="htzor1O-yuh1PvPFaX9e-29" value="sls_quantity" style="text;strokeColor=none;fillColor=none;align=left;verticalAlign=middle;spacingLeft=4;spacingRight=4;overflow=hidden;points=[[0,0.5],[1,0.5]];portConstraint=eastwest;rotatable=0;whiteSpace=wrap;html=1;fontSize=17;" parent="htzor1O-yuh1PvPFaX9e-22" vertex="1">
          <mxGeometry y="250" width="144" height="32" as="geometry" />
        </mxCell>
        <mxCell id="htzor1O-yuh1PvPFaX9e-31" value="Transaction record about sales and order&amp;nbsp;" style="text;strokeColor=none;align=center;fillColor=none;html=1;verticalAlign=middle;whiteSpace=wrap;rounded=0;fontSize=14;" parent="1" vertex="1">
          <mxGeometry x="24" y="300" width="150" height="30" as="geometry" />
        </mxCell>
        <mxCell id="htzor1O-yuh1PvPFaX9e-32" value="" style="edgeStyle=orthogonalEdgeStyle;rounded=0;orthogonalLoop=1;jettySize=auto;html=1;entryX=0;entryY=0.5;entryDx=0;entryDy=0;exitX=1;exitY=0.5;exitDx=0;exitDy=0;" parent="1" source="htzor1O-yuh1PvPFaX9e-24" target="htzor1O-yuh1PvPFaX9e-3" edge="1">
          <mxGeometry relative="1" as="geometry">
            <mxPoint x="240" y="270" as="targetPoint" />
          </mxGeometry>
        </mxCell>
        <mxCell id="htzor1O-yuh1PvPFaX9e-33" value="" style="edgeStyle=orthogonalEdgeStyle;rounded=0;orthogonalLoop=1;jettySize=auto;html=1;entryX=0;entryY=0.5;entryDx=0;entryDy=0;" parent="1" source="htzor1O-yuh1PvPFaX9e-25" target="htzor1O-yuh1PvPFaX9e-15" edge="1">
          <mxGeometry relative="1" as="geometry" />
        </mxCell>
        <mxCell id="htzor1O-yuh1PvPFaX9e-36" value="current &amp;amp; history" style="text;strokeColor=none;align=center;fillColor=none;html=1;verticalAlign=middle;whiteSpace=wrap;rounded=0;fontSize=15;" parent="1" vertex="1">
          <mxGeometry x="304" y="160" width="121" height="30" as="geometry" />
        </mxCell>
        <mxCell id="htzor1O-yuh1PvPFaX9e-37" value="" style="edgeStyle=orthogonalEdgeStyle;rounded=0;orthogonalLoop=1;jettySize=auto;html=1;" parent="1" source="htzor1O-yuh1PvPFaX9e-26" target="htzor1O-yuh1PvPFaX9e-21" edge="1">
          <mxGeometry relative="1" as="geometry">
            <mxPoint x="250" y="650" as="targetPoint" />
            <Array as="points">
              <mxPoint x="220" y="478" />
              <mxPoint x="220" y="724" />
            </Array>
          </mxGeometry>
        </mxCell>
        <mxCell id="htzor1O-yuh1PvPFaX9e-58" value="" style="group" parent="1" vertex="1" connectable="0">
          <mxGeometry x="695" y="180" width="144" height="120" as="geometry" />
        </mxCell>
        <mxCell id="htzor1O-yuh1PvPFaX9e-39" value="&lt;font style=&quot;color: rgb(255, 255, 255);&quot;&gt;erp_loc_A101&lt;/font&gt;" style="swimlane;fontStyle=0;childLayout=stackLayout;horizontal=1;startSize=30;horizontalStack=0;resizeParent=1;resizeParentMax=0;resizeLast=0;collapsible=1;marginBottom=0;whiteSpace=wrap;html=1;fillColor=#1ba1e2;fontColor=#ffffff;strokeColor=#006EAF;fontSize=17;" parent="htzor1O-yuh1PvPFaX9e-58" vertex="1">
          <mxGeometry y="30" width="144" height="90" as="geometry" />
        </mxCell>
        <mxCell id="htzor1O-yuh1PvPFaX9e-40" value="cid" style="text;strokeColor=none;fillColor=none;align=left;verticalAlign=middle;spacingLeft=4;spacingRight=4;overflow=hidden;points=[[0,0.5],[1,0.5]];portConstraint=eastwest;rotatable=0;whiteSpace=wrap;html=1;fontSize=17;" parent="htzor1O-yuh1PvPFaX9e-39" vertex="1">
          <mxGeometry y="30" width="144" height="30" as="geometry" />
        </mxCell>
        <mxCell id="htzor1O-yuh1PvPFaX9e-41" value="cntry" style="text;strokeColor=none;fillColor=none;align=left;verticalAlign=middle;spacingLeft=4;spacingRight=4;overflow=hidden;points=[[0,0.5],[1,0.5]];portConstraint=eastwest;rotatable=0;whiteSpace=wrap;html=1;fontSize=17;" parent="htzor1O-yuh1PvPFaX9e-39" vertex="1">
          <mxGeometry y="60" width="144" height="30" as="geometry" />
        </mxCell>
        <mxCell id="htzor1O-yuh1PvPFaX9e-59" value="" style="group" parent="1" vertex="1" connectable="0">
          <mxGeometry x="690" y="380" width="144" height="130" as="geometry" />
        </mxCell>
        <mxCell id="htzor1O-yuh1PvPFaX9e-48" value="&lt;font style=&quot;color: rgb(255, 255, 255);&quot;&gt;erp_cust_AZ12&lt;/font&gt;" style="swimlane;fontStyle=0;childLayout=stackLayout;horizontal=1;startSize=30;horizontalStack=0;resizeParent=1;resizeParentMax=0;resizeLast=0;collapsible=1;marginBottom=0;whiteSpace=wrap;html=1;fillColor=#1ba1e2;fontColor=#ffffff;strokeColor=#006EAF;fontSize=17;" parent="htzor1O-yuh1PvPFaX9e-59" vertex="1">
          <mxGeometry y="40" width="144" height="120" as="geometry" />
        </mxCell>
        <mxCell id="htzor1O-yuh1PvPFaX9e-49" value="cid" style="text;strokeColor=none;fillColor=none;align=left;verticalAlign=middle;spacingLeft=4;spacingRight=4;overflow=hidden;points=[[0,0.5],[1,0.5]];portConstraint=eastwest;rotatable=0;whiteSpace=wrap;html=1;fontSize=17;" parent="htzor1O-yuh1PvPFaX9e-48" vertex="1">
          <mxGeometry y="30" width="144" height="30" as="geometry" />
        </mxCell>
        <mxCell id="htzor1O-yuh1PvPFaX9e-50" value="bdate" style="text;strokeColor=none;fillColor=none;align=left;verticalAlign=middle;spacingLeft=4;spacingRight=4;overflow=hidden;points=[[0,0.5],[1,0.5]];portConstraint=eastwest;rotatable=0;whiteSpace=wrap;html=1;fontSize=17;" parent="htzor1O-yuh1PvPFaX9e-48" vertex="1">
          <mxGeometry y="60" width="144" height="30" as="geometry" />
        </mxCell>
        <mxCell id="htzor1O-yuh1PvPFaX9e-65" value="gen" style="text;strokeColor=none;fillColor=none;align=left;verticalAlign=middle;spacingLeft=4;spacingRight=4;overflow=hidden;points=[[0,0.5],[1,0.5]];portConstraint=eastwest;rotatable=0;whiteSpace=wrap;html=1;fontSize=17;" parent="htzor1O-yuh1PvPFaX9e-48" vertex="1">
          <mxGeometry y="90" width="144" height="30" as="geometry" />
        </mxCell>
        <mxCell id="htzor1O-yuh1PvPFaX9e-51" value="gen &amp;amp; bdate" style="text;strokeColor=none;align=center;fillColor=none;html=1;verticalAlign=middle;whiteSpace=wrap;rounded=0;fontSize=15;" parent="htzor1O-yuh1PvPFaX9e-59" vertex="1">
          <mxGeometry x="11.5" width="121" height="30" as="geometry" />
        </mxCell>
        <mxCell id="htzor1O-yuh1PvPFaX9e-64" style="edgeStyle=orthogonalEdgeStyle;rounded=0;orthogonalLoop=1;jettySize=auto;html=1;entryX=0;entryY=0.5;entryDx=0;entryDy=0;" parent="1" source="htzor1O-yuh1PvPFaX9e-16" target="htzor1O-yuh1PvPFaX9e-40" edge="1">
          <mxGeometry relative="1" as="geometry" />
        </mxCell>
        <mxCell id="htzor1O-yuh1PvPFaX9e-68" style="edgeStyle=orthogonalEdgeStyle;rounded=0;orthogonalLoop=1;jettySize=auto;html=1;entryX=0;entryY=0.5;entryDx=0;entryDy=0;" parent="1" source="htzor1O-yuh1PvPFaX9e-3" target="htzor1O-yuh1PvPFaX9e-53" edge="1">
          <mxGeometry relative="1" as="geometry">
            <Array as="points">
              <mxPoint x="470" y="265" />
              <mxPoint x="470" y="655" />
            </Array>
          </mxGeometry>
        </mxCell>
        <mxCell id="htzor1O-yuh1PvPFaX9e-47" value="customer&amp;amp; country" style="text;strokeColor=none;align=center;fillColor=none;html=1;verticalAlign=middle;whiteSpace=wrap;rounded=0;fontSize=15;" parent="1" vertex="1">
          <mxGeometry x="710" y="175" width="121" height="30" as="geometry" />
        </mxCell>
        <mxCell id="htzor1O-yuh1PvPFaX9e-55" value="category" style="text;strokeColor=none;align=center;fillColor=none;html=1;verticalAlign=middle;whiteSpace=wrap;rounded=0;fontSize=15;" parent="1" vertex="1">
          <mxGeometry x="690" y="580" width="121" height="30" as="geometry" />
        </mxCell>
        <mxCell id="htzor1O-yuh1PvPFaX9e-52" value="&lt;font color=&quot;#ffffff&quot;&gt;erp_px_cat_G1V2&lt;/font&gt;" style="swimlane;fontStyle=0;childLayout=stackLayout;horizontal=1;startSize=30;horizontalStack=0;resizeParent=1;resizeParentMax=0;resizeLast=0;collapsible=1;marginBottom=0;whiteSpace=wrap;html=1;fillColor=#1ba1e2;fontColor=#ffffff;strokeColor=#006EAF;fontSize=17;" parent="1" vertex="1">
          <mxGeometry x="690" y="622" width="144" height="150" as="geometry" />
        </mxCell>
        <mxCell id="htzor1O-yuh1PvPFaX9e-53" value="id" style="text;strokeColor=none;fillColor=none;align=left;verticalAlign=middle;spacingLeft=4;spacingRight=4;overflow=hidden;points=[[0,0.5],[1,0.5]];portConstraint=eastwest;rotatable=0;whiteSpace=wrap;html=1;fontSize=17;" parent="htzor1O-yuh1PvPFaX9e-52" vertex="1">
          <mxGeometry y="30" width="144" height="30" as="geometry" />
        </mxCell>
        <mxCell id="htzor1O-yuh1PvPFaX9e-54" value="cat" style="text;strokeColor=none;fillColor=none;align=left;verticalAlign=middle;spacingLeft=4;spacingRight=4;overflow=hidden;points=[[0,0.5],[1,0.5]];portConstraint=eastwest;rotatable=0;whiteSpace=wrap;html=1;fontSize=17;" parent="htzor1O-yuh1PvPFaX9e-52" vertex="1">
          <mxGeometry y="60" width="144" height="30" as="geometry" />
        </mxCell>
        <mxCell id="htzor1O-yuh1PvPFaX9e-67" value="subcat" style="text;strokeColor=none;fillColor=none;align=left;verticalAlign=middle;spacingLeft=4;spacingRight=4;overflow=hidden;points=[[0,0.5],[1,0.5]];portConstraint=eastwest;rotatable=0;whiteSpace=wrap;html=1;fontSize=17;" parent="htzor1O-yuh1PvPFaX9e-52" vertex="1">
          <mxGeometry y="90" width="144" height="30" as="geometry" />
        </mxCell>
        <mxCell id="htzor1O-yuh1PvPFaX9e-66" value="maintenance" style="text;strokeColor=none;fillColor=none;align=left;verticalAlign=middle;spacingLeft=4;spacingRight=4;overflow=hidden;points=[[0,0.5],[1,0.5]];portConstraint=eastwest;rotatable=0;whiteSpace=wrap;html=1;fontSize=17;" parent="htzor1O-yuh1PvPFaX9e-52" vertex="1">
          <mxGeometry y="120" width="144" height="30" as="geometry" />
        </mxCell>
        <mxCell id="htzor1O-yuh1PvPFaX9e-71" style="edgeStyle=orthogonalEdgeStyle;rounded=0;orthogonalLoop=1;jettySize=auto;html=1;entryX=0;entryY=0.5;entryDx=0;entryDy=0;" parent="1" edge="1">
          <mxGeometry relative="1" as="geometry">
            <mxPoint x="410.00000000000045" y="565" as="sourcePoint" />
            <mxPoint x="666" y="465" as="targetPoint" />
            <Array as="points">
              <mxPoint x="566" y="565" />
              <mxPoint x="566" y="465" />
            </Array>
          </mxGeometry>
        </mxCell>
        <mxCell id="htzor1O-yuh1PvPFaX9e-72" value="" style="rounded=0;whiteSpace=wrap;html=1;fillColor=none;dashed=1;strokeColor=#FFB570;strokeWidth=9;" parent="1" vertex="1">
          <mxGeometry x="602" y="90" width="320" height="710" as="geometry" />
        </mxCell>
        <mxCell id="htzor1O-yuh1PvPFaX9e-73" value="&lt;font style=&quot;font-size: 42px;&quot;&gt;CRM&lt;/font&gt;" style="text;strokeColor=none;align=center;fillColor=none;html=1;verticalAlign=middle;whiteSpace=wrap;rounded=0;" parent="1" vertex="1">
          <mxGeometry x="210" y="40" width="60" height="30" as="geometry" />
        </mxCell>
        <mxCell id="htzor1O-yuh1PvPFaX9e-75" value="&lt;font style=&quot;font-size: 42px;&quot;&gt;ERP&lt;/font&gt;" style="text;strokeColor=none;align=center;fillColor=none;html=1;verticalAlign=middle;whiteSpace=wrap;rounded=0;" parent="1" vertex="1">
          <mxGeometry x="740.5" y="40" width="60" height="30" as="geometry" />
        </mxCell>
        <mxCell id="1tyhebM-RBIcmnKt0VaY-1" value="&lt;font style=&quot;font-size: 46px;&quot;&gt;LOGICAL DATA MODEL&amp;nbsp;&lt;/font&gt;" style="text;strokeColor=default;align=center;fillColor=none;html=1;verticalAlign=middle;whiteSpace=wrap;rounded=0;fontSize=33;" vertex="1" parent="1">
          <mxGeometry x="-90" y="-130" width="1020" height="80" as="geometry" />
        </mxCell>
        <mxCell id="1tyhebM-RBIcmnKt0VaY-2" value="CUSTOMER" style="text;html=1;strokeColor=#d6b656;fillColor=#fff2cc;align=center;verticalAlign=middle;whiteSpace=wrap;overflow=hidden;fontSize=23;fontColor=#000000;" vertex="1" parent="1">
          <mxGeometry x="692.25" y="540" width="149.5" height="30" as="geometry" />
        </mxCell>
        <mxCell id="1tyhebM-RBIcmnKt0VaY-3" value="CUSTOMER" style="text;html=1;strokeColor=#d6b656;fillColor=#fff2cc;align=center;verticalAlign=middle;whiteSpace=wrap;overflow=hidden;fontSize=23;fontColor=#000000;" vertex="1" parent="1">
          <mxGeometry x="692.25" y="300" width="149.5" height="30" as="geometry" />
        </mxCell>
        <mxCell id="1tyhebM-RBIcmnKt0VaY-4" value="PRODUCT&lt;div&gt;&lt;br&gt;&lt;/div&gt;" style="text;html=1;strokeColor=#2D7600;fillColor=#60a917;align=center;verticalAlign=middle;whiteSpace=wrap;overflow=hidden;fontSize=23;fontColor=#ffffff;" vertex="1" parent="1">
          <mxGeometry x="287.25" y="440" width="149.5" height="30" as="geometry" />
        </mxCell>
        <mxCell id="1tyhebM-RBIcmnKt0VaY-5" value="PRODUCT" style="text;html=1;strokeColor=#2D7600;fillColor=#60a917;align=center;verticalAlign=middle;whiteSpace=wrap;overflow=hidden;fontSize=23;fontColor=#ffffff;" vertex="1" parent="1">
          <mxGeometry x="684.5" y="772" width="149.5" height="30" as="geometry" />
        </mxCell>
        <mxCell id="1tyhebM-RBIcmnKt0VaY-6" value="CUSTOMER" style="text;html=1;strokeColor=#d6b656;fillColor=#fff2cc;align=center;verticalAlign=middle;whiteSpace=wrap;overflow=hidden;fontSize=23;fontColor=#000000;" vertex="1" parent="1">
          <mxGeometry x="287.25" y="742" width="149.5" height="30" as="geometry" />
        </mxCell>
        <mxCell id="1tyhebM-RBIcmnKt0VaY-7" value="SALES" style="text;html=1;strokeColor=#C73500;fillColor=#fa6800;align=center;verticalAlign=middle;whiteSpace=wrap;overflow=hidden;fontSize=23;fontColor=#000000;" vertex="1" parent="1">
          <mxGeometry x="30" y="622" width="149.5" height="30" as="geometry" />
        </mxCell>
      </root>
    </mxGraphModel>
  </diagram>
</mxfile>
